<svg width="17" height="12" viewBox="0 0 17 12" fill="none" xmlns="http://www.w3.org/2000/svg">
<path d="M8.88 3.076C8.77867 3.08867 8.67733 3.12667 8.576 3.19C8.47467 3.25333 8.39233 3.342 8.329 3.456C8.27833 3.57 8.24667 3.67133 8.234 3.76C8.20867 3.912 8.20233 4.03867 8.215 4.14C8.24033 4.30467 8.291 4.41867 8.367 4.482C8.45567 4.54533 8.55067 4.57067 8.652 4.558L8.842 4.539C8.88 4.539 8.937 4.51367 9.013 4.463L9.127 3.076H8.88ZM0.311 1.898C0.893667 2.48067 1.774 3.361 2.952 4.539C5.29533 6.86967 7.04967 8.624 8.215 9.802C8.329 9.916 8.41767 9.973 8.481 9.973C8.557 9.96033 8.652 9.90333 8.766 9.802L16.233 2.316L16.385 2.183C16.5877 2.01833 16.708 1.88533 16.746 1.784C16.7967 1.67 16.8157 1.48633 16.803 1.233L16.784 0.986C16.7967 0.466666 16.537 0.207 16.005 0.207H0.957C0.450333 0.207 0.197 0.460333 0.197 0.966999V1.594C0.184333 1.68267 0.222333 1.784 0.311 1.898ZM6.353 3.437C6.44167 3.10767 6.59367 2.78467 6.809 2.468C7.037 2.17667 7.32833 1.92967 7.683 1.727C8.063 1.51167 8.50633 1.37867 9.013 1.328C9.26633 1.31533 9.526 1.33433 9.792 1.385C10.0707 1.423 10.2987 1.50533 10.476 1.632C10.666 1.75867 10.837 1.94233 10.989 2.183C11.1157 2.39833 11.198 2.67067 11.236 3C11.2487 3.20267 11.236 3.43067 11.198 3.684C11.1473 3.89933 11.0587 4.10833 10.932 4.311C10.8307 4.48833 10.685 4.64667 10.495 4.786C10.3177 4.91267 10.096 4.995 9.83 5.033C9.57667 5.05833 9.374 5.00133 9.222 4.862C9.15867 4.91267 9.051 4.976 8.899 5.052C8.79767 5.09 8.64567 5.12167 8.443 5.147C8.31633 5.17233 8.20233 5.17233 8.101 5.147C7.99967 5.109 7.90467 5.05833 7.816 4.995C7.71467 4.89367 7.645 4.805 7.607 4.729C7.55633 4.615 7.51833 4.482 7.493 4.33C7.46767 4.07667 7.48667 3.84233 7.55 3.627C7.626 3.41167 7.72733 3.22167 7.854 3.057C7.95533 2.93033 8.10733 2.79733 8.31 2.658C8.48733 2.56933 8.68367 2.506 8.899 2.468H9.07C9.222 2.45533 9.32967 2.45533 9.393 2.468C9.51967 2.468 9.67167 2.49333 9.849 2.544L9.678 4.444C9.70333 4.45667 9.76667 4.463 9.868 4.463C10.0073 4.43767 10.1277 4.38067 10.229 4.292C10.3303 4.20333 10.4063 4.09567 10.457 3.969C10.5077 3.84233 10.5457 3.703 10.571 3.551C10.609 3.38633 10.6153 3.22167 10.59 3.057C10.552 2.65167 10.3937 2.34133 10.115 2.126C9.83633 1.936 9.46267 1.86 8.994 1.898C8.66467 1.936 8.348 2.02467 8.044 2.164C7.79067 2.30333 7.57533 2.49333 7.398 2.734C7.22067 2.97467 7.094 3.228 7.018 3.494C6.942 3.76 6.91667 4.045 6.942 4.349C6.95467 4.56433 7.018 4.77967 7.132 4.995C7.246 5.21033 7.36633 5.356 7.493 5.432C7.645 5.546 7.80967 5.622 7.987 5.66C8.16433 5.698 8.36067 5.70433 8.576 5.679C8.82933 5.65367 9.00667 5.62833 9.108 5.603C9.27267 5.565 9.41833 5.508 9.545 5.432L9.697 5.755C9.72233 5.831 9.74133 5.888 9.754 5.926C9.70333 5.964 9.62733 6.002 9.526 6.04C9.39933 6.09067 9.298 6.12867 9.222 6.154C9.15867 6.16667 9.051 6.18567 8.899 6.211C8.747 6.23633 8.633 6.249 8.557 6.249C8.27833 6.287 8.006 6.27433 7.74 6.211C7.474 6.14767 7.23333 6.04633 7.018 5.907C6.81533 5.755 6.65067 5.55867 6.524 5.318C6.372 5.03933 6.28967 4.74167 6.277 4.425C6.239 4.14633 6.26433 3.817 6.353 3.437ZM13.041 6.971C13.0283 6.95833 13.0093 6.93933 12.984 6.914L12.87 6.819C12.8193 6.895 12.7813 6.94567 12.756 6.971L9.336 10.391C9.07 10.657 8.785 10.79 8.481 10.79C8.18967 10.79 7.91733 10.6633 7.664 10.41L4.244 6.99C4.206 6.952 4.16167 6.895 4.111 6.819C4.073 6.84433 4.04133 6.86967 4.016 6.895L0.292 10.619C0.203333 10.7077 0.178 10.828 0.216 10.98C0.292 11.322 0.532667 11.493 0.938 11.493H16.176C16.442 11.455 16.6257 11.3283 16.727 11.113C16.7777 10.9863 16.7967 10.885 16.784 10.809C16.784 10.733 16.7333 10.6443 16.632 10.543C15.834 9.75767 14.637 8.567 13.041 6.971ZM0.197 9.498L3.427 6.268C2.71767 5.53333 1.641 4.444 0.197 3V9.498ZM16.784 9.479V3L13.554 6.23L16.784 9.479Z" fill="#FE6600"/>
</svg>
