<svg width="18" height="8" viewBox="0 0 18 8" fill="none" xmlns="http://www.w3.org/2000/svg">
<path d="M17.3 0.059999H7.52C7.36 0.059999 7.21333 0.119999 7.08 0.239999C6.94667 0.346666 6.86667 0.473333 6.84 0.619999L5.44 7.38C5.41333 7.54 5.44 7.67333 5.52 7.78C5.61333 7.88667 5.74 7.94 5.9 7.94H15.68C15.8267 7.94 15.9667 7.88667 16.1 7.78C16.2333 7.67333 16.3133 7.54 16.34 7.38L17.74 0.619999C17.7667 0.473333 17.7333 0.346666 17.64 0.239999C17.56 0.119999 17.4467 0.059999 17.3 0.059999ZM16.12 2.32L11.78 4.42C11.6867 4.46 11.5867 4.48 11.48 4.48C11.3867 4.48 11.3067 4.46 11.24 4.42L7.76 2.32C7.62667 2.25333 7.55333 2.14 7.54 1.98C7.52667 1.82 7.57333 1.67333 7.68 1.54C7.82667 1.32667 8.02 1.22 8.26 1.22C8.32667 1.22 8.41333 1.24667 8.52 1.3L11.76 3.24L15.78 1.3C15.9133 1.24667 16.0133 1.22 16.08 1.22C16.3067 1.22 16.4533 1.32667 16.52 1.54C16.5733 1.68667 16.56 1.84 16.48 2C16.4 2.14667 16.28 2.25333 16.12 2.32ZM1.78 1.54H6C6.10667 1.54 6.2 1.5 6.28 1.42C6.36 1.34 6.4 1.24667 6.4 1.14C6.4 1.03333 6.36 0.939999 6.28 0.859999C6.2 0.78 6.10667 0.74 6 0.74H1.78C1.67333 0.74 1.58 0.78 1.5 0.859999C1.42 0.939999 1.38 1.03333 1.38 1.14C1.38 1.24667 1.42 1.34 1.5 1.42C1.58 1.5 1.67333 1.54 1.78 1.54ZM4.86 4.4H0.66C0.553333 4.4 0.46 4.44 0.38 4.52C0.3 4.6 0.26 4.69333 0.26 4.8C0.26 4.90667 0.3 5.00667 0.38 5.1C0.46 5.18 0.553333 5.22 0.66 5.22H4.86C4.98 5.22 5.08 5.18 5.16 5.1C5.24 5.02 5.28 4.92 5.28 4.8C5.28 4.68 5.24 4.58667 5.16 4.52C5.08 4.44 4.98 4.4 4.86 4.4ZM5.84 2.94C5.84 2.83333 5.8 2.74 5.72 2.66C5.64 2.58 5.54667 2.54 5.44 2.54H2.92C2.81333 2.54 2.72 2.58 2.64 2.66C2.56 2.74 2.52 2.83333 2.52 2.94C2.52 3.04667 2.56 3.14667 2.64 3.24C2.72 3.32 2.81333 3.36 2.92 3.36H5.44C5.54667 3.36 5.64 3.32 5.72 3.24C5.8 3.16 5.84 3.06 5.84 2.94Z" fill="#FE6600"/>
</svg>
