<svg width="23" height="20" viewBox="0 0 23 20" fill="none" xmlns="http://www.w3.org/2000/svg">
<path d="M20.825 9.775C20.7917 8.00833 20.35 6.375 19.5 4.875C18.6667 3.40833 17.55 2.25 16.15 1.4C14.7167 0.516666 13.1667 0.0749988 11.5 0.0749988C9.83333 0.0749988 8.275 0.516666 6.825 1.4C5.425 2.25 4.31667 3.40833 3.5 4.875C2.63333 6.375 2.19167 8.00833 2.175 9.775C1.70833 9.925 1.325 10.2167 1.025 10.65C0.725 11.0667 0.575 11.55 0.575 12.1V16.975C0.575 17.6417 0.791667 18.2167 1.225 18.7C1.65833 19.1833 2.18333 19.425 2.8 19.425H4.575V19.4C4.79167 19.3833 4.96667 19.2917 5.1 19.125C5.25 18.975 5.325 18.7833 5.325 18.55V10.7C5.325 10.4833 5.25 10.3 5.1 10.15C4.96667 9.98333 4.8 9.88333 4.6 9.85C4.61667 8.53333 4.94167 7.31667 5.575 6.2C6.19167 5.11667 7.01667 4.25 8.05 3.6C9.11667 2.95 10.2667 2.625 11.5 2.625C12.7333 2.625 13.8833 2.95 14.95 3.6C15.9833 4.25 16.8083 5.11667 17.425 6.2C18.0583 7.31667 18.3833 8.53333 18.4 9.85C18.2 9.88333 18.025 9.98333 17.875 10.15C17.7417 10.3 17.675 10.4833 17.675 10.7V18.575C17.675 18.7917 17.7417 18.975 17.875 19.125C18.025 19.2917 18.2083 19.3833 18.425 19.4V19.425H20.2C20.8167 19.425 21.3417 19.1833 21.775 18.7C22.225 18.2333 22.45 17.6583 22.45 16.975V12.1C22.45 11.55 22.2917 11.0583 21.975 10.625C21.675 10.1917 21.2917 9.90833 20.825 9.775Z" fill="#FE6600"/>
</svg>
