<svg width="11" height="16" viewBox="0 0 11 16" fill="none" xmlns="http://www.w3.org/2000/svg">
<path d="M5.177 14.622C4.81433 14.146 4.50267 13.7153 4.242 13.33C3.09733 11.7207 2.168 10.1737 1.454 8.689C1.22733 8.213 1.05167 7.805 0.927 7.465C0.757 7.01167 0.632333 6.58667 0.553 6.19C0.224333 4.524 0.615334 3.06767 1.726 1.821C2.78 0.619666 4.13433 0.0529992 5.789 0.120999C6.52567 0.143666 7.22267 0.336333 7.88 0.699C8.53733 1.05033 9.09267 1.52633 9.546 2.127C9.99933 2.72767 10.2997 3.39067 10.447 4.116C10.6283 5.01133 10.5773 5.901 10.294 6.785C9.80667 8.315 8.99633 9.947 7.863 11.681C7.53433 12.191 7.01867 12.939 6.316 13.925L5.602 14.928C5.57933 14.9507 5.56233 14.9677 5.551 14.979C5.53967 15.0017 5.49433 14.979 5.415 14.911C5.347 14.843 5.26767 14.7467 5.177 14.622ZM7.982 5.238C7.99333 4.81867 7.897 4.422 7.693 4.048C7.50033 3.66267 7.22267 3.351 6.86 3.113C6.50867 2.86367 6.12333 2.72767 5.704 2.705C5.228 2.68233 4.786 2.773 4.378 2.977C3.98133 3.16967 3.664 3.453 3.426 3.827C3.188 4.201 3.05767 4.63167 3.035 5.119C3.01233 5.53833 3.103 5.94067 3.307 6.326C3.52233 6.7 3.81133 7.01167 4.174 7.261C4.53667 7.499 4.92767 7.62367 5.347 7.635C5.81167 7.65767 6.24233 7.57267 6.639 7.38C7.03567 7.176 7.353 6.887 7.591 6.513C7.829 6.139 7.95933 5.714 7.982 5.238Z" fill="#FE6600"/>
</svg>
