<svg width="15" height="20" viewBox="0 0 15 20" fill="none" xmlns="http://www.w3.org/2000/svg">
<path d="M10.616 19.331C10.274 19.3437 9.86867 19.2233 9.4 18.97C9.02 18.7547 8.63367 18.4823 8.241 18.153C7.45567 17.4817 6.70833 16.6457 5.999 15.645C5.47967 14.9103 4.897 13.954 4.251 12.776C3.529 11.4967 2.94 10.3503 2.484 9.337C1.90133 8.07033 1.458 6.86067 1.154 5.708C1.002 5.08733 0.907 4.549 0.869 4.093C0.831 3.51033 0.875333 2.972 1.002 2.478C1.24267 1.57867 1.77467 1.053 2.598 0.900999C2.91467 0.850332 3.396 0.755333 4.042 0.616C4.52333 0.501999 4.88433 0.425999 5.125 0.387999C5.40367 0.337332 5.62533 0.356332 5.79 0.444999C5.96733 0.533666 6.10667 0.704666 6.208 0.958C6.82867 2.45267 7.36067 3.77633 7.804 4.929C7.90533 5.195 7.92433 5.423 7.861 5.613C7.81033 5.79033 7.671 5.955 7.443 6.107L7.025 6.392C6.645 6.63267 6.36633 6.82267 6.189 6.962C6.113 7.02533 6.04967 7.114 5.999 7.228C5.94833 7.32933 5.92933 7.418 5.942 7.494C6.37267 9.21667 7.18333 10.7683 8.374 12.149C8.55133 12.3643 8.76033 12.4087 9.001 12.282C9.20367 12.1807 9.52033 12.0477 9.951 11.883L10.35 11.712C10.6287 11.6107 10.863 11.5853 11.053 11.636C11.243 11.6867 11.4203 11.8323 11.585 12.073C12.6237 13.6183 13.3963 14.7773 13.903 15.55C14.0803 15.8287 14.1563 16.0693 14.131 16.272C14.1057 16.4747 13.9727 16.6963 13.732 16.937L13.542 17.127C13.2507 17.4057 12.972 17.6527 12.706 17.868C12.2753 18.1973 11.5787 18.685 10.616 19.331Z" fill="#FE6600"/>
</svg>
