<svg width="39" height="49" viewBox="0 0 39 49" fill="none" xmlns="http://www.w3.org/2000/svg">
<path d="M38.09 41.08L31.765 27L31.38 27.22C31.2333 27.33 31.1233 27.44 31.05 27.55L29.455 30.08C29.1983 30.4467 28.8683 30.7583 28.465 31.015C28.0617 31.235 27.6217 31.3633 27.145 31.4L24.175 31.51C24.1017 31.51 23.9917 31.5283 23.845 31.565L23.35 31.84L20.38 38.44L24.45 47.57C24.67 48.01 25.0183 48.2483 25.495 48.285C26.0083 48.3217 26.4117 48.1383 26.705 47.735L29.785 43.28C30.225 42.6933 30.61 42.51 30.94 42.73L36.88 42.895C37.3567 42.9317 37.7233 42.7483 37.98 42.345C38.2367 41.9417 38.2733 41.52 38.09 41.08ZM21.095 33.05C20.655 33.2333 20.215 33.325 19.775 33.325C19.335 33.325 18.895 33.215 18.455 32.995L15.815 31.62C15.6683 31.5467 15.5217 31.51 15.375 31.51L12.405 31.4C11.9283 31.3633 11.4883 31.235 11.085 31.015C10.7183 30.795 10.4067 30.4833 10.15 30.08L8.5 27.55C8.46333 27.4767 8.37167 27.3667 8.225 27.22L7.4 26.725L0.91 41.08C0.726667 41.52 0.745 41.9417 0.965 42.345C1.22167 42.7483 1.58833 42.95 2.065 42.95L8.115 42.73C8.555 42.73 8.90333 42.9133 9.16 43.28L12.295 47.79C12.5883 48.1567 12.9367 48.34 13.34 48.34C13.5967 48.34 13.835 48.2667 14.055 48.12C14.275 48.01 14.44 47.8267 14.55 47.57L21.095 33.05ZM5.475 19.245C5.62167 19.465 5.73167 19.8317 5.805 20.345L5.915 23.315C5.915 23.7917 6.11667 24.14 6.52 24.36L9.05 25.955C9.38 26.1383 9.63667 26.395 9.82 26.725L11.415 29.255C11.635 29.585 11.9833 29.7867 12.46 29.86L15.43 29.97C15.9433 30.0433 16.31 30.135 16.53 30.245L16.695 30.355L19.17 31.62C19.39 31.73 19.5917 31.785 19.775 31.785C19.9583 31.785 20.16 31.73 20.38 31.62L23.02 30.245L23.24 30.19C23.6067 30.0433 23.9 29.97 24.12 29.97L27.09 29.86C27.5667 29.7867 27.915 29.585 28.135 29.255L29.73 26.725C29.95 26.395 30.2067 26.1383 30.5 25.955L33.03 24.305C33.36 24.085 33.5617 23.755 33.635 23.315L33.745 20.235C33.8183 19.795 33.91 19.465 34.02 19.245L35.395 16.605C35.615 16.2017 35.615 15.7983 35.395 15.395L34.075 12.755C33.9283 12.535 33.8183 12.1683 33.745 11.655L33.635 8.685C33.635 8.20833 33.4333 7.86 33.03 7.64L30.5 6.045C30.17 5.825 29.9133 5.56833 29.73 5.275L28.135 2.745C27.915 2.34166 27.5667 2.14 27.09 2.14L24.12 2.03C23.7167 1.95666 23.35 1.84666 23.02 1.7L20.38 0.324999C20.2333 0.251664 20.0317 0.214997 19.775 0.214997C19.5183 0.214997 19.3167 0.251664 19.17 0.324999L16.53 1.7C16.1633 1.88333 15.7967 1.975 15.43 1.975L12.46 2.14C11.9833 2.14 11.635 2.34166 11.415 2.745L9.82 5.22C9.63667 5.51333 9.38 5.78833 9.05 6.045L6.52 7.64C6.11667 7.86 5.915 8.20833 5.915 8.685L5.75 11.655C5.75 12.0217 5.65833 12.3883 5.475 12.755L4.1 15.395C3.91667 15.7983 3.91667 16.2017 4.1 16.605L5.475 19.245Z" fill="white"/>
</svg>
